G04 FreePCB version 1.359*
G04 Z:\electronic designs\fancontroller\CAM-rev1\bottom_silk.grb*
G04 bottom silk layer *
G04 Scale: 100 percent, Rotated: No, Reflected: No *
%FSLAX24Y24*%
%MOIN*%
%LN bottom silk *%
G04 Rounded Rectangle Macro, params: W/2, H/2, R *
%AMRNDREC*
21,1,$1+$1,$2+$2-$3-$3,0,0,0*
21,1,$1+$1-$3-$3,$2+$2,0,0,0*
1,1,$3+$3,$1-$3,$2-$3*
1,1,$3+$3,$3-$1,$2-$3*
1,1,$3+$3,$1-$3,$3-$2*
1,1,$3+$3,$3-$1,$3-$2*%
G04 Rectangular Thermal Macro, params: W/2, H/2, T/2 *
%AMRECTHERM*
$4=$3/2*
21,1,$1-$3,$2-$3,0-$1/2-$4,0-$2/2-$4,0*
21,1,$1-$3,$2-$3,0-$1/2-$4,$2/2+$4,0*
21,1,$1-$3,$2-$3,$1/2+$4,0-$2/2-$4,0*
21,1,$1-$3,$2-$3,$1/2+$4,$2/2+$4,0*%
%ADD10C,0.005000*%
%ADD11C,0.005906*%
G90*
G70D02*

G04 Step and Repeat for panelization *

G04 ----------------------- Draw board outline (positive)*
%LPD*%
G54D10*
G01X0Y0D02*
G01X10984Y0D01*
G04 end of side 1*
G01X11023Y0D01*
G04 end of side 2*
G01X11417Y393D01*
G04 end of side 3*
G01X12204Y393D01*
G04 end of side 4*
G01X12598Y0D01*
G04 end of side 5*
G01X19685Y0D01*
G04 end of side 6*
G01X19685Y9842D01*
G04 end of side 7*
G01X5905Y9842D01*
G04 end of side 8*
G01X5511Y9448D01*
G04 end of side 9*
G01X3937Y9448D01*
G04 end of side 10*
G01X3543Y9842D01*
G04 end of side 11*
G01X0Y9842D01*
G04 end of side 12*
G01X0Y0D01*

G04 -------------- Draw Parts, Pads, Traces, Vias and Text (positive)*
%LPD*%
G04 Draw part C1*
G04 Draw part U1*
G04 Draw part J2*
G04 Draw part J1*
G04 Draw part DD1*
G04 Draw part R6*
G04 Draw part T1*
G04 Draw part U2*
G04 Draw part S2*
G04 Draw part S1*
G04 Draw part S3*
G04 Draw part D1*
G04 Draw part R1*
G04 Draw part D2*
G04 Draw part R2*
G04 Draw part D3*
G04 Draw part R3*
G04 Draw part D4*
G04 Draw part R4*
G04 Draw part U3*
G04 Draw part R7*
G04 Draw part R5*
G04 Draw part K1*
G04 Draw part K2*
G04 Draw part K3*
G04 Draw part J6*
G04 Draw part J5*
G04 Draw part J8*
G04 Draw part J7*
G04 Draw part J4*
G04 Draw part J3*
G04 Draw part C2*
G04 Draw part J9*
G04 Draw part LOGO*

G04 Draw traces*

G04 Draw Text*
G54D11*
G01X934Y8729D02*
G01X952Y8765D01*
G01X952Y8765D02*
G01X1005Y8818D01*
G01X1005Y8818D02*
G01X629Y8818D01*
G01X2451Y8070D02*
G01X2487Y8052D01*
G01X2487Y8052D02*
G01X2523Y8017D01*
G01X2523Y8017D02*
G01X2541Y7981D01*
G01X2541Y7981D02*
G01X2541Y7909D01*
G01X2541Y7909D02*
G01X2523Y7874D01*
G01X2523Y7874D02*
G01X2487Y7838D01*
G01X2487Y7838D02*
G01X2451Y7820D01*
G01X2451Y7820D02*
G01X2397Y7802D01*
G01X2397Y7802D02*
G01X2308Y7802D01*
G01X2308Y7802D02*
G01X2254Y7820D01*
G01X2254Y7820D02*
G01X2219Y7838D01*
G01X2219Y7838D02*
G01X2183Y7874D01*
G01X2183Y7874D02*
G01X2165Y7909D01*
G01X2165Y7909D02*
G01X2165Y7981D01*
G01X2165Y7981D02*
G01X2183Y8017D01*
G01X2183Y8017D02*
G01X2219Y8052D01*
G01X2219Y8052D02*
G01X2254Y8070D01*
G01X2254Y8070D02*
G01X2308Y8070D01*
G01X2308Y7981D02*
G01X2308Y8070D01*
G01X2541Y7480D02*
G01X2523Y7444D01*
G01X2523Y7444D02*
G01X2487Y7408D01*
G01X2487Y7408D02*
G01X2451Y7390D01*
G01X2451Y7390D02*
G01X2397Y7372D01*
G01X2397Y7372D02*
G01X2308Y7372D01*
G01X2308Y7372D02*
G01X2254Y7390D01*
G01X2254Y7390D02*
G01X2219Y7408D01*
G01X2219Y7408D02*
G01X2183Y7444D01*
G01X2183Y7444D02*
G01X2165Y7480D01*
G01X2165Y7480D02*
G01X2165Y7551D01*
G01X2165Y7551D02*
G01X2183Y7587D01*
G01X2183Y7587D02*
G01X2219Y7623D01*
G01X2219Y7623D02*
G01X2254Y7641D01*
G01X2254Y7641D02*
G01X2308Y7659D01*
G01X2308Y7659D02*
G01X2397Y7659D01*
G01X2397Y7659D02*
G01X2451Y7641D01*
G01X2451Y7641D02*
G01X2487Y7623D01*
G01X2487Y7623D02*
G01X2523Y7587D01*
G01X2523Y7587D02*
G01X2541Y7551D01*
G01X2541Y7551D02*
G01X2541Y7480D01*
G01X2541Y6979D02*
G01X2165Y6979D01*
G01X2541Y6979D02*
G01X2541Y7140D01*
G01X2541Y7140D02*
G01X2523Y7193D01*
G01X2523Y7193D02*
G01X2505Y7211D01*
G01X2505Y7211D02*
G01X2469Y7229D01*
G01X2469Y7229D02*
G01X2433Y7229D01*
G01X2433Y7229D02*
G01X2397Y7211D01*
G01X2397Y7211D02*
G01X2380Y7193D01*
G01X2380Y7193D02*
G01X2362Y7140D01*
G01X2362Y7140D02*
G01X2362Y6979D01*
G01X2362Y7104D02*
G01X2165Y7229D01*
G01X2541Y6585D02*
G01X2165Y6585D01*
G01X2541Y6585D02*
G01X2541Y6746D01*
G01X2541Y6746D02*
G01X2523Y6800D01*
G01X2523Y6800D02*
G01X2505Y6818D01*
G01X2505Y6818D02*
G01X2469Y6836D01*
G01X2469Y6836D02*
G01X2415Y6836D01*
G01X2415Y6836D02*
G01X2380Y6818D01*
G01X2380Y6818D02*
G01X2362Y6800D01*
G01X2362Y6800D02*
G01X2344Y6746D01*
G01X2344Y6746D02*
G01X2344Y6585D01*
M00*
M02*
