;Holesize 1 =   35.0 PLATED MILS
;Holesize 2 =   40.0 PLATED MILS
;Holesize 3 =   49.0 PLATED MILS
;Holesize 4 =   14.0 PLATED MILS
M48
INCH,00.0000
T01C0.035
T02C0.040
T03C0.049
T04C0.014
%
G05
G90
T01
X018307Y006988
X018307Y006003
T02
X001574Y003937
X001574Y002937
X001574Y001937
X001574Y000937
X018307Y003937
X018307Y002937
X018307Y001937
X018307Y000937
T03
X002425Y001937
X019157Y001937
T04
X003110Y003287
X011653Y003070
X005472Y007480
X003877Y007480
X005472Y007893
X003877Y007893
X001929Y008897
X000984Y007775
X009507Y000649
X013444Y000649
X005570Y000649
X004330Y001102
X013444Y000649
X003346Y005905
X003937Y004803
X000590Y005708
X016476Y008858
X016476Y007480
X016476Y006102
X016476Y004724
X011653Y003897
X001870Y008405
X005295Y001633
X004212Y001633
X003779Y005984
X003484Y008228
X006161Y005551
X003877Y006417
X005433Y007027
X003740Y007165
X003228Y007165
X006062Y006732
X003877Y006830
X001948Y007204
X004035Y008562
X015551Y001830
X015551Y001062
M30
